<?xml version="1.0" standalone="no"?>
<!DOCTYPE svg PUBLIC "-//W3C//DTD SVG 20010904//EN"
 "http://www.w3.org/TR/2001/REC-SVG-20010904/DTD/svg10.dtd">
<svg version="1.0" xmlns="http://www.w3.org/2000/svg"
 width="128.000000pt" height="128.000000pt" viewBox="0 0 128.000000 128.000000"
 preserveAspectRatio="xMidYMid meet">
<metadata>
Created by potrace 1.11, written by Peter Selinger 2001-2013
</metadata>
<g transform="translate(0.000000,128.000000) scale(0.100000,-0.100000)"
fill="#000000" stroke="none">
<path d="M0 646 c0 -256 2 -466 5 -466 3 0 52 27 108 60 57 33 107 60 113 60
5 0 8 -28 6 -61 -3 -72 -10 -73 125 7 51 30 97 52 102 49 5 -3 8 -27 6 -55 -2
-27 0 -52 4 -55 4 -2 73 33 152 79 79 45 260 149 402 231 l258 148 -48 27
c-528 304 -764 437 -766 431 -2 -3 -3 -32 -2 -63 0 -32 -1 -58 -3 -58 -2 0
-45 24 -95 54 -146 85 -134 81 -135 38 0 -20 -1 -50 -1 -65 l-1 -29 -42 25
c-24 14 -61 35 -83 47 -22 12 -55 31 -72 42 l-33 20 0 -466z m140 339 c47 -27
86 -49 88 -51 3 -1 4 -351 2 -540 l0 -42 -89 -51 c-49 -28 -91 -51 -95 -51 -3
0 -6 178 -6 396 0 217 3 393 8 391 4 -2 45 -26 92 -52z m274 -23 c47 -26 50
-30 51 -70 1 -26 -3 -42 -9 -40 -6 2 -50 26 -98 53 l-88 50 0 43 0 42 48 -25
c26 -13 69 -37 96 -53z m206 14 c229 -127 577 -332 572 -337 -6 -6 -508 -294
-607 -349 -22 -12 -44 -26 -50 -31 -20 -20 -32 -8 -31 32 l1 40 265 152 c145
84 263 156 263 161 -1 4 -120 76 -265 160 l-262 151 -2 35 c-1 48 4 54 34 34
14 -9 51 -31 82 -48z m55 -166 c2 0 28 -14 57 -31 29 -18 69 -41 88 -51 112
-63 140 -80 140 -86 -1 -6 -424 -251 -449 -260 -4 -1 -7 17 -6 40 l1 42 144
84 c80 46 148 87 152 91 5 4 -57 44 -137 90 -79 46 -148 89 -153 95 -7 8 -9
70 -3 84 1 1 37 -20 82 -48 44 -27 82 -50 84 -50z m-298 39 l88 -50 0 -156 0
-155 -93 -54 c-52 -30 -95 -54 -98 -54 -2 0 -4 117 -4 260 0 146 4 260 9 260
5 0 49 -23 98 -51z m229 -132 c49 -29 98 -56 107 -60 18 -7 24 -27 7 -27 -5 0
-44 -21 -87 -46 -43 -25 -89 -52 -103 -59 l-26 -13 1 129 c0 71 2 129 5 129 4
0 46 -24 96 -53z m-141 -322 c-3 -44 0 -42 -107 -103 l-88 -50 0 43 c0 47 0
47 105 105 33 18 64 36 69 41 15 14 23 2 21 -36z"/>
</g>
</svg>
